<svg xmlns="http://www.w3.org/2000/svg" xmlns:xlink="http://www.w3.org/1999/xlink" width="281.442" height="88.504" viewBox="0 0 281.442 88.504">
  <defs>
    <linearGradient id="linear-gradient" x1="0.931" y1="0.626" x2="0.198" y2="0.137" gradientUnits="objectBoundingBox">
      <stop offset="0" stop-color="#d52819"/>
      <stop offset="0.473" stop-color="#bb2318"/>
      <stop offset="1" stop-color="#de2919"/>
    </linearGradient>
    <linearGradient id="linear-gradient-2" x1="0.268" y1="0.833" x2="0.311" y2="0.237" gradientUnits="objectBoundingBox">
      <stop offset="0" stop-color="#d52819"/>
      <stop offset="1" stop-color="#9d1e16"/>
    </linearGradient>
    <linearGradient id="linear-gradient-3" x1="0.668" y1="0.202" x2="0.364" y2="0.635" xlink:href="#linear-gradient-2"/>
    <linearGradient id="linear-gradient-4" x1="0.57" y1="0.188" x2="0.5" y2="1" gradientUnits="objectBoundingBox">
      <stop offset="0" stop-color="#d72919"/>
      <stop offset="0.29" stop-color="#921c14"/>
      <stop offset="0.602" stop-color="#d72919"/>
      <stop offset="1" stop-color="#9d1e16"/>
    </linearGradient>
    <linearGradient id="linear-gradient-5" x1="0.5" y1="0" x2="0.5" y2="1" xlink:href="#linear-gradient-2"/>
    <linearGradient id="linear-gradient-6" x1="0.255" y1="0.666" x2="0.883" y2="0.146" xlink:href="#linear-gradient-2"/>
    <linearGradient id="linear-gradient-7" x1="0.613" y1="0.068" x2="0.203" y2="0.837" gradientUnits="objectBoundingBox">
      <stop offset="0" stop-color="#d52819"/>
      <stop offset="1" stop-color="#881a13"/>
    </linearGradient>
  </defs>
  <g id="Grupo_970" data-name="Grupo 970" transform="translate(0 68.666)">
    <path id="Caminho_5579" data-name="Caminho 5579" d="M0-8.6V-21.418H9.876c1.8,0,2.684-.628,1.123-2.151a6.247,6.247,0,0,0-2.288-1.384Q0-27.849,0-36.129A8.284,8.284,0,0,1,1.753-41.54a10.2,10.2,0,0,1,4.192-3.082,12.29,12.29,0,0,1,4.493-.959H26.957v11.753H19.314a3.955,3.955,0,0,0-1.74.4c-.534.274-.808.548-.808.849,0,.52.849,1.233,2.548,2.123,2.1,1.233,3.616,2.192,4.589,2.9a10.335,10.335,0,0,1,2.685,3.164,12.691,12.691,0,0,1,1.521,5.356q0,10.437-11.6,10.437Z" transform="translate(0 5.962)" fill="#fff"/>
    <path id="Caminho_5580" data-name="Caminho 5580" d="M47.641-22.89V-8.33c-2.1.205-3.739.315-4.945.315a20.251,20.251,0,0,1-9.808-2.369,16.844,16.844,0,0,1-6.794-6.739,20.38,20.38,0,0,1-2.452-10.109,19.661,19.661,0,0,1,2.712-10.561,17.1,17.1,0,0,1,7.424-6.575,24.38,24.38,0,0,1,10.492-2.191,20.341,20.341,0,0,1,11.4,3.137A20.1,20.1,0,0,1,62.886-35.4a22.6,22.6,0,0,1,2.424,10.122V-8.33H50.024v-18.9a4.8,4.8,0,0,0-1.712-4,6.3,6.3,0,0,0-4.054-1.356,6.184,6.184,0,0,0-3.863,1.246,4.2,4.2,0,0,0-1.63,3.52,6.775,6.775,0,0,0,1.37,4.369,4.335,4.335,0,0,0,3.548,1.712,8.6,8.6,0,0,0,3.959-1.15" transform="translate(6.129 5.708)" fill="#fff"/>
    <path id="Caminho_5581" data-name="Caminho 5581" d="M58.054,6.9V-27.114a19.686,19.686,0,0,1,2.63-10.232,18.682,18.682,0,0,1,6.931-6.89,21.186,21.186,0,0,1,9.26-2.781,21.283,21.283,0,0,1,11.081,2.753,17.939,17.939,0,0,1,7,7.506,22.955,22.955,0,0,1,2.383,10.465,24.064,24.064,0,0,1-1.657,8.6,16.492,16.492,0,0,1-5.657,7.41C87.353-8.252,83.86-7.239,79.518-7.239q-1.274,0-4.931-.411V-22.771a9,9,0,0,0,3.521,1.15A4.818,4.818,0,0,0,81.7-23.155,5.435,5.435,0,0,0,83.2-27.114a4.834,4.834,0,0,0-1.726-3.877A5.685,5.685,0,0,0,77.7-32.469a5.077,5.077,0,0,0-3.575,1.425A5.117,5.117,0,0,0,72.6-27.114V6.9Z" transform="translate(15.05 5.59)" fill="#fff"/>
    <path id="Caminho_5582" data-name="Caminho 5582" d="M129.515-32.341l-18.738,10.2-3.863-6.671,7.644-4.123a4.069,4.069,0,0,0-3.137-1.219c-9.934.457-9.568,14.979.178,14.958q4.5-.01,9.617-5.492l8.3,8.04a19.724,19.724,0,0,1-5.2,5.123,25.426,25.426,0,0,1-6.917,3.342,24.652,24.652,0,0,1-7.356,1.15,21.576,21.576,0,0,1-6.985-1.137,17.861,17.861,0,0,1-6.027-3.479,17.315,17.315,0,0,1-4.383-5.931c-2.8-6.007-2.82-14.374.767-20a18.678,18.678,0,0,1,7.273-6.726,19.457,19.457,0,0,1,8.931-2.26q14.259,0,19.9,14.218" transform="translate(23.493 5.708)" fill="#fff"/>
    <path id="Caminho_5583" data-name="Caminho 5583" d="M122.83-8.343V-45.327h13.9v4.685a14.285,14.285,0,0,1,6.658-4.917,28.85,28.85,0,0,1,8.122-1v12.985a34.063,34.063,0,0,0-6.807.6,8.842,8.842,0,0,0-4.822,2.7q-1.932,2.1-1.932,6.15v15.78Z" transform="translate(31.843 5.708)" fill="#fff"/>
    <g id="Grupo_1088" data-name="Grupo 1088" transform="translate(7590.571 -2293.025)">
      <path id="Caminho_5660" data-name="Caminho 5660" d="M155.688,19.466l41.535-32.584c4.169,2.686,3.452,7.234,10.825,7.632,0,0,10.659.232,13.03,0,2.541-.249,3.605-1.5,1.967-2.883-5.576-4.718-10.965-9.455-16.55-14.166,1.589-3.421,22.188-27.6,22.188-27.6,12.633,13.557,10.133,42.254-3.975,52.683-23.76,17.563-35.893,2.98-42.287,7.523-2.6,1.851-4.882,7.641,4.113,9.909,39.076,9.853,67.386-31.489,49.021-63.789-2.032-3.573-5.391-8.423-8.455-10.1,0,0-25.91,19.264-29.7,22.3-1.959-1.024-5.975-5.6-7.617-7.346-1.141-1.218-2.008-1.7-5.93-1.684-4.652.016-8.312-.752-8.043,1.609.192,1.683,11.945,15.913,12.639,16.492L167.831,4.28c.624-4.835,3.147-7.5.942-11.53-9.672-17.709-5.18-41.209,12.094-51.8,6.984-4.282,13.815-5.325,23.2-6.116a41.642,41.642,0,0,0-29.71,6.105C157.251-47.2,149.917-26.943,156.953-7.316c2.75,7.669,4.5,4.451,2.214,13.2C158.079,10.039,156.354,15.332,155.688,19.466Z" transform="translate(-7550.414 2290.157)" fill-rule="evenodd" fill="url(#linear-gradient)"/>
      <path id="Caminho_5678" data-name="Caminho 5678" d="M14.566,5.268c-.725-2.573-13.1-20.924.823-42.729,5.176-8.108,13.947-11.957,13.947-11.957C8.114-40.452-6.168-16.037,2.824,5.295c0,0,1.7,3.114,2.441,4.643a4.46,4.46,0,0,1-.01,2.657c-1.75,7.763-4.344,18-4.344,18,5.869-4.62,10.429-7.926,12.222-16.08C13.927,10.906,15.232,7.443,14.566,5.268Z" transform="translate(-7395.55 2278.795)" fill-rule="evenodd" fill="url(#linear-gradient-2)"/>
      <path id="Caminho_5673" data-name="Caminho 5673" d="M46.977-18.172l3.957,4.763a7.571,7.571,0,0,0,5.48,2.725c3.53.16,8.132.219,8.132.219L47.173-27.721,5.339,14.287Z" transform="translate(-7400.064 2295.191)" fill-rule="evenodd" fill="url(#linear-gradient-3)"/>
      <path id="Caminho_5674" data-name="Caminho 5674" d="M53.946-.883a1.279,1.279,0,0,1,.13,1.34,1.279,1.279,0,0,1-1.142.713L44.954,1.2,27.4-16.047,57.046-45.592l1.8,2.145L36.7-15.878,53.431-1.558Z" transform="translate(-7380.474 2283.521)" fill-rule="evenodd" fill="url(#linear-gradient-4)"/>
      <path id="Caminho_5675" data-name="Caminho 5675" d="M19.6,45.262c14.935.809,28.246-8.749,33.554-21.537A42.113,42.113,0,0,0,55.631.156l.2-.156C61.381,27.442,40,60.219,8.764,55.309c-.011.005-11.5-2.213-8.151-9.6C2.826,40.828,11.908,44.847,19.6,45.262Z" transform="matrix(0.999, 0.035, -0.035, 0.999, -7369.534, 2255.116)" fill-rule="evenodd" fill="url(#linear-gradient-5)"/>
      <path id="Caminho_5677" data-name="Caminho 5677" d="M26.516-30.487a4.754,4.754,0,0,0-1.743-1.235,30.666,30.666,0,0,0-6.964-.571L34.267-14.181,63.819-43.714l-.884-.9-28.668,21.4S29.3-27.954,26.516-30.487Z" transform="translate(-7387.246 2281.651)" fill-rule="evenodd" fill="url(#linear-gradient-6)"/>
      <path id="Caminho_5676" data-name="Caminho 5676" d="M22.714-35.93a1.6,1.6,0,0,1-.189-1.651,1.6,1.6,0,0,1,1.375-.933c1.659-.087,3.525,0,3.525,0L44.094-20.406,2.113,21.718,34.621-20.527Z" transform="translate(-7396.838 2287.876)" fill-rule="evenodd" fill="url(#linear-gradient-7)"/>
    </g>
  </g>
</svg>
